<svg width="160" height="160" viewBox="0 0 160 160" fill="none" xmlns="http://www.w3.org/2000/svg">
  <rect x="8" y="8" width="144" height="144" rx="32" fill="#0F172A" />
  <rect x="20" y="32" width="120" height="96" rx="24" fill="url(#gradShield)" />
  <path
    d="M80 52L108 68V92C108 110.778 96.937 126.337 80 132C63.063 126.337 52 110.778 52 92V68L80 52Z"
    fill="#38BDF8"
    opacity="0.85"
  />
  <path
    d="M80 70L95 79V90C95 101.046 88.732 110.754 80 114C71.268 110.754 65 101.046 65 90V79L80 70Z"
    fill="#F8FAFC"
  />
  <circle cx="80" cy="88" r="8" fill="#0F172A" />
  <path
    d="M48 52C55 38 65 30 80 28C95 30 105 38 112 52"
    stroke="#38BDF8"
    stroke-width="6"
    stroke-linecap="round"
    stroke-linejoin="round"
    opacity="0.75"
  />
  <defs>
    <linearGradient id="gradShield" x1="20" y1="32" x2="140" y2="128" gradientUnits="userSpaceOnUse">
      <stop stop-color="#0EA5E9" stop-opacity="0.25" />
      <stop offset="0.6" stop-color="#22D3EE" stop-opacity="0.15" />
      <stop offset="1" stop-color="#0EA5E9" stop-opacity="0.45" />
    </linearGradient>
  </defs>
</svg>

